<?xml version="1.0" encoding="utf-8"?>
<!-- Generator: Adobe Illustrator 21.0.0, SVG Export Plug-In . SVG Version: 6.00 Build 0)  -->
<svg version="1.1" xmlns="http://www.w3.org/2000/svg" xmlns:xlink="http://www.w3.org/1999/xlink" x="0px" y="0px"
	 viewBox="0 0 74.7 74.9" style="enable-background:new 0 0 74.7 74.9;" xml:space="preserve">
<style type="text/css">
	.st0{display:none;}
	.st1{display:inline;fill:#FFFFFF;}
	.st2{display:inline;fill:#F90000;}
	.st3{fill:#060606;}
	.st4{fill:#FFFFFF;}
	.st5{fill:#F90000;}
</style>
<g id="Layer_2" class="st0">
	
		<image style="display:inline;overflow:visible;" width="2000" height="2009" xlink:href="../../../Downloads/IMG_9193.PNG"  transform="matrix(4.119484e-02 0 0 4.119484e-02 -2.9356 -3.4464)">
	</image>
</g>
<g id="Layer_1">
	<g class="st0">
		<rect x="1.3" y="1.3" class="st1" width="72.4" height="72.4"/>
		<path class="st2" d="M72.4,2.5v69.9H2.5V2.5H72.4 M74.9,0H0v74.9h74.9V0L74.9,0z"/>
	</g>
	<title>dxlab.</title>
	<desc>Created with Sketch.</desc>
	<g id="Page-1">
		<g>
			<path class="st3" d="M10.5,50.1C8,47.4,6.8,44,6.8,39.9c0-4.2,1.2-7.6,3.7-10.3s5.5-4,9-4c3.6,0,6.3,1.3,8.2,4V16.8h8.5v37h-8.5
				v-4c-2.1,2.9-4.8,4.4-8.3,4.4S13,52.8,10.5,50.1z M25.9,44.9c1.2-1.2,1.9-2.9,1.9-5.1s-0.7-3.9-1.9-5c-1.2-1.2-2.6-1.8-4.2-1.8
				c-1.6,0-3,0.6-4.2,1.8c-1.2,1.2-1.9,2.9-1.9,5.1s0.6,3.9,1.9,5.1c1.2,1.2,2.6,1.8,4.2,1.8C23.3,46.8,24.6,46.1,25.9,44.9z"/>
			<path class="st3" d="M67.3,25.9l-9,13.5l9,14.4h-9.6l-4.6-7.3l-4.5,7.3h-8.4l9-13.5l-9-14.4h9.6l4.6,7.2l4.5-7.2
				C58.9,25.9,67.3,25.9,67.3,25.9z"/>
		</g>
	</g>
	<g>
		<polygon class="st4" points="1.3,73.7 1.3,63.7 2.9,63.7 2.9,72 11.3,72 11.3,73.7 		"/>
		<polygon class="st5" points="4.2,62.4 0,62.4 0,66.6 0,70.8 0,74.9 4.2,74.9 8.4,74.9 12.5,74.9 12.5,70.8 8.4,70.8 4.2,70.8 
			4.2,66.6 4.2,62.4 		"/>
	</g>
	<g>
		<polygon class="st4" points="1.3,11.3 1.3,1.3 11.3,1.3 11.3,2.9 2.9,2.9 2.9,11.3 		"/>
		<polygon class="st5" points="12.5,0 8.4,0 4.2,0 0,0 0,4.2 0,8.4 0,12.5 4.2,12.5 4.2,8.4 4.2,4.2 8.4,4.2 12.5,4.2 12.5,0 		"/>
	</g>
	<g>
		<polygon class="st4" points="71.8,11.3 71.8,2.9 63.5,2.9 63.5,1.3 73.5,1.3 73.5,11.3 		"/>
		<polygon class="st5" points="74.7,0 70.6,0 66.4,0 62.2,0 62.2,4.2 66.4,4.2 70.6,4.2 70.6,8.4 70.6,12.5 74.7,12.5 74.7,8.4 
			74.7,4.2 74.7,0 		"/>
	</g>
	<g>
		<polygon class="st4" points="63.5,73.7 63.5,72 71.8,72 71.8,63.7 73.5,63.7 73.5,73.7 		"/>
		<polygon class="st5" points="74.7,62.4 70.6,62.4 70.6,66.6 70.6,70.8 66.4,70.8 62.2,70.8 62.2,74.9 66.4,74.9 70.6,74.9 
			74.7,74.9 74.7,70.8 74.7,66.6 74.7,62.4 		"/>
	</g>
</g>
</svg>
