<?xml version="1.0" encoding="utf-8"?>
<!-- Generator: Adobe Illustrator 21.0.0, SVG Export Plug-In . SVG Version: 6.00 Build 0)  -->
<svg version="1.1" id="Layer_1" xmlns="http://www.w3.org/2000/svg" xmlns:xlink="http://www.w3.org/1999/xlink" x="0px" y="0px"
	 viewBox="0 0 158.1 39" style="enable-background:new 0 0 158.1 39;" xml:space="preserve">
<style type="text/css">
	.st0{enable-background:new    ;}
	.st1{fill:#EB1E26;}
	.st2{fill:#FFFFFF;}
</style>
<title>dxlab.</title>
<desc>Created with Sketch.</desc>
<g id="Page-1">
	<g class="st0">
		<path class="st1" d="M4.4,34.3c-2.5-2.7-3.7-6.1-3.7-10.2c0-4.2,1.2-7.6,3.7-10.3c2.5-2.7,5.5-4,9-4c3.6,0,6.3,1.3,8.2,4V1h8.5v37
			h-8.5v-4c-2.1,2.9-4.8,4.4-8.3,4.4S6.9,37,4.4,34.3z M19.8,29.1c1.2-1.2,1.9-2.9,1.9-5.1S21,20.1,19.8,19
			c-1.2-1.2-2.6-1.8-4.2-1.8s-3,0.6-4.2,1.8c-1.2,1.2-1.9,2.9-1.9,5.1c0,2.2,0.6,3.9,1.9,5.1c1.2,1.2,2.6,1.8,4.2,1.8
			S18.5,30.3,19.8,29.1z"/>
		<path class="st1" d="M61.2,10.1l-9,13.5l9,14.4h-9.6L47,30.7L42.5,38h-8.4l9-13.5l-9-14.4h9.6l4.6,7.2l4.5-7.2H61.2z"/>
	</g>
	<g class="st0">
		<path class="st2" d="M65.1,38V1h8.5v37H65.1z"/>
		<path class="st2" d="M82.8,34.3c-2.5-2.7-3.7-6.1-3.7-10.2c0-4.2,1.2-7.6,3.7-10.3c2.5-2.7,5.5-4,9-4c3.6,0,6.3,1.3,8.2,4v-3.7
			h8.5V38H100v-4c-2.1,2.9-4.8,4.4-8.3,4.4S85.3,37,82.8,34.3z M98.1,29.1c1.2-1.2,1.9-2.9,1.9-5.1s-0.6-3.9-1.9-5.1
			c-1.2-1.2-2.6-1.8-4.2-1.8c-1.6,0-3,0.6-4.2,1.8s-1.8,2.9-1.8,5.1c0,2.2,0.6,3.9,1.8,5.1c1.2,1.2,2.7,1.8,4.2,1.8
			C95.5,30.9,96.9,30.3,98.1,29.1z"/>
		<path class="st2" d="M124.6,13.7c1.9-2.6,4.6-4,8.2-4s6.6,1.3,9,4c2.5,2.7,3.7,6.1,3.7,10.3c0,4.2-1.2,7.6-3.7,10.2
			c-2.5,2.7-5.5,4-9,4s-6.2-1.5-8.2-4.4v4H116V1h8.5V13.7z M134.9,29.2c1.2-1.2,1.9-2.9,1.9-5.1c0-2.2-0.6-3.9-1.9-5.1
			s-2.6-1.8-4.2-1.8c-1.6,0-3,0.6-4.2,1.8c-1.2,1.2-1.8,2.9-1.8,5.1s0.6,3.9,1.8,5.1c1.2,1.2,2.7,1.8,4.2,1.8
			C132.3,30.9,133.7,30.3,134.9,29.2z"/>
	</g>
	<g class="st0">
		<path class="st1" d="M157.3,33.3c0,1.3-0.5,2.4-1.3,3.3c-0.9,0.9-2,1.3-3.3,1.3c-1.3,0-2.4-0.5-3.3-1.3c-0.9-0.9-1.3-2-1.3-3.3
			c0-1.3,0.5-2.4,1.3-3.3c0.9-0.9,2-1.3,3.3-1.3c1.3,0,2.4,0.4,3.3,1.3C156.8,30.9,157.3,32,157.3,33.3z"/>
	</g>
</g>
</svg>
